<svg width="23" height="18" viewBox="0 0 23 18" fill="none" xmlns="http://www.w3.org/2000/svg">
<path d="M22.258 16.4569H0.742V16.1699H22.258V16.4569ZM3.66442 0.799677H19.2453V13.7606H3.66442V0.799677ZM1.91516 15.3702L3.38256 14.5603H19.5295L21.0425 15.3702H1.91516ZM22.9943 15.7034C22.9929 15.6932 22.991 15.6829 22.9891 15.6778C22.9853 15.6624 22.9815 15.647 22.9762 15.6316C22.9734 15.6214 22.971 15.6163 22.9672 15.606C22.9606 15.5907 22.9525 15.5752 22.9444 15.5599C22.9411 15.5547 22.9387 15.5497 22.9354 15.5445C22.923 15.524 22.9087 15.5035 22.8931 15.4882C22.8893 15.483 22.884 15.4779 22.8797 15.4779C22.8679 15.4625 22.8555 15.4522 22.8417 15.442C22.8346 15.4368 22.8265 15.4318 22.8189 15.4266C22.8108 15.4215 22.8028 15.4164 22.7937 15.4112L19.9873 13.9144V0.399322C19.9873 0.178386 19.8214 0 19.6165 0H3.29317C3.08878 0 2.92242 0.178386 2.92242 0.399322V13.9144L0.202016 15.4112C0.19441 15.4164 0.187281 15.4215 0.179676 15.4266C0.17207 15.4318 0.164477 15.4368 0.156872 15.442C0.144513 15.4522 0.133088 15.4625 0.121679 15.4728C0.116451 15.4779 0.110766 15.483 0.106012 15.4882C0.0903261 15.5087 0.0760709 15.524 0.0637119 15.5445C0.0622859 15.5445 0.0613194 15.5497 0.059418 15.5497C0.0489605 15.5702 0.0399368 15.5855 0.031856 15.606C0.0290039 15.6163 0.0266135 15.6214 0.0237614 15.6316C0.0185326 15.647 0.013801 15.6624 0.0104736 15.6778C0.00904756 15.6881 0.00714154 15.6932 0.0057155 15.7034C0.00333878 15.7188 0.00189697 15.7342 0.00142162 15.7547C0.000946279 15.7598 0 15.7649 0 15.7701V16.8568C0 17.0772 0.165909 17.2566 0.370782 17.2566H22.6292C22.8341 17.2566 23 17.0772 23 16.8568V15.7701C23 15.7649 22.9991 15.7598 22.9986 15.7547C22.9981 15.7342 22.9967 15.7188 22.9943 15.7034Z" fill="white"/>
<path d="M17.2839 10.6695H5.62557V2.45281H17.2839V10.6695ZM17.6551 1.65314H5.25479C5.04992 1.65314 4.88354 1.83205 4.88354 2.05299V11.0694C4.88354 11.2898 5.04992 11.4692 5.25479 11.4692H17.6551C17.86 11.4692 18.0259 11.2898 18.0259 11.0694V2.05299C18.0259 1.83205 17.86 1.65314 17.6551 1.65314Z" fill="white"/>
<path d="M11.6031 12.9353C11.4087 12.9353 11.2508 12.7661 11.2508 12.556C11.2508 12.3458 11.4087 12.1766 11.6031 12.1766C11.7975 12.1766 11.9557 12.3458 11.9557 12.556C11.9557 12.7661 11.7975 12.9353 11.6031 12.9353ZM11.6031 11.6948C11.1634 11.6948 10.8054 12.0792 10.8054 12.556C10.8054 13.0276 11.1634 13.4171 11.6031 13.4171C12.0432 13.4171 12.4007 13.0276 12.4007 12.556C12.4007 12.0792 12.0432 11.6948 11.6031 11.6948Z" fill="white"/>
</svg>
