<svg width="13" height="19" viewBox="0 0 13 19" fill="none" xmlns="http://www.w3.org/2000/svg">
<g clip-path="url(#clip0_123_186)">
<path d="M12.2634 17.2744C12.2634 17.7814 11.846 18.193 11.3325 18.193H1.62443C1.11091 18.193 0.6935 17.7814 0.6935 17.2744V1.60152C0.6935 1.09453 1.11091 0.682965 1.62443 0.682965H11.3325C11.846 0.682965 12.2634 1.09453 12.2634 1.60152V17.2744ZM11.3325 -0.0012207H1.62443C0.729083 -0.0012207 0.000488281 0.717575 0.000488281 1.60152V17.2744C0.000488281 18.1584 0.729083 18.8772 1.62443 18.8772H11.3325C12.2278 18.8772 12.9559 18.1584 12.9559 17.2744V1.60152C12.9559 0.717575 12.2278 -0.0012207 11.3325 -0.0012207Z" fill="white"/>
<path d="M6.47832 1.11915C6.57656 1.11915 6.65675 1.03945 6.65675 0.941936C6.65675 0.844419 6.57656 0.765778 6.47832 0.765778C6.37901 0.765778 6.29883 0.844419 6.29883 0.941936C6.29883 1.03945 6.37901 1.11915 6.47832 1.11915Z" fill="white"/>
<path d="M5.80876 1.8295H7.14753C7.24577 1.8295 7.32542 1.75086 7.32542 1.65334C7.32542 1.5574 7.24577 1.47824 7.14753 1.47824H5.80876C5.71051 1.47824 5.63086 1.5574 5.63086 1.65334C5.63086 1.75086 5.71051 1.8295 5.80876 1.8295Z" fill="white"/>
<path d="M5.21014 1.79075C5.28661 1.79075 5.34928 1.72942 5.34928 1.65392C5.34928 1.57842 5.28661 1.51709 5.21014 1.51709C5.13367 1.51709 5.07153 1.57842 5.07153 1.65392C5.07153 1.72942 5.13367 1.79075 5.21014 1.79075Z" fill="white"/>
<path d="M6.47834 17.7231C6.08058 17.7231 5.75665 17.4033 5.75665 17.0112C5.75665 16.619 6.08058 16.2997 6.47834 16.2997C6.87556 16.2997 7.19897 16.619 7.19897 17.0112C7.19897 17.4033 6.87556 17.7231 6.47834 17.7231ZM6.47834 15.9574C5.8894 15.9574 5.4104 16.4308 5.4104 17.0112C5.4104 17.5926 5.8894 18.065 6.47834 18.065C7.06673 18.065 7.54521 17.5926 7.54521 17.0112C7.54521 16.4308 7.06673 15.9574 6.47834 15.9574Z" fill="white"/>
<path d="M10.8589 15.5495H2.09721V2.57086H10.8589V15.5495ZM11.0321 2.22903H1.92356C1.82851 2.22903 1.75098 2.30557 1.75098 2.39994V15.7204C1.75098 15.8153 1.82851 15.8913 1.92356 15.8913H11.0321C11.1282 15.8913 11.2057 15.8153 11.2057 15.7204V2.39994C11.2057 2.30557 11.1282 2.22903 11.0321 2.22903Z" fill="white"/>
</g>
<defs>
<clipPath id="clip0_123_186">
<rect width="13" height="19" fill="white"/>
</clipPath>
</defs>
</svg>
